# xmcd
#
# Track frame offsets:
#	150
#	25238
#	42655
#	66218
#	82685
#	101878
#	130075
#	148468
#	165240
#
# Disc length: 2485 seconds
#
# Revision: 0
# Processed by: cddbd v1.5.2PL0 Copyright (c) Steve Scherf et al.
# Submitted via: audiograbber 1.83.01
#
DISCID=7809b309
DTITLE=Womack, Bobby - The poet II
DYEAR=1984
DGENRE=Soul
TTITLE0=Love has finally come at last
TTITLE1=It takes a lot of strength to say goodbye
TTITLE2=Through the eyes of a child
TTITLE3=Surprise, surprise
TTITLE4=Tryin' to get over you
TTITLE5=Tell me why
TTITLE6=Who's foolin' who
TTITLE7=I wish I had someone to go home to
TTITLE8=American dream
EXTD=
EXTT0=
EXTT1=
EXTT2=
EXTT3=
EXTT4=
EXTT5=
EXTT6=
EXTT7=
EXTT8=
PLAYORDER=
